<svg xmlns="http://www.w3.org/2000/svg" xmlns:xlink="http://www.w3.org/1999/xlink" width="500" zoomAndPan="magnify" viewBox="0 0 375 112.499997" height="150" preserveAspectRatio="xMidYMid meet" version="1.0"><defs><g/><clipPath id="13b342cfb7"><path d="M 0.828125 23.867188 L 211.171875 23.867188 L 211.171875 100.28125 L 0.828125 100.28125 Z M 0.828125 23.867188 " clip-rule="nonzero"/></clipPath><clipPath id="4108525584"><path d="M 355 34 L 373.820312 34 L 373.820312 39 L 355 39 Z M 355 34 " clip-rule="nonzero"/></clipPath><clipPath id="43e1dab99e"><path d="M 337 11 L 344 11 L 344 32 L 337 32 Z M 337 11 " clip-rule="nonzero"/></clipPath><clipPath id="a84b43978f"><path d="M 329.679688 25.796875 L 339.890625 7.035156 L 359.375 17.636719 L 349.167969 36.402344 Z M 329.679688 25.796875 " clip-rule="nonzero"/></clipPath><clipPath id="d58cd4ef2b"><path d="M 329.679688 25.796875 L 339.890625 7.035156 L 370.203125 23.523438 L 359.992188 42.289062 Z M 329.679688 25.796875 " clip-rule="nonzero"/></clipPath><clipPath id="7e4795f84e"><path d="M 345 14 L 356 14 L 356 32 L 345 32 Z M 345 14 " clip-rule="nonzero"/></clipPath><clipPath id="23bee3184e"><path d="M 329.679688 25.796875 L 339.890625 7.035156 L 359.375 17.636719 L 349.167969 36.402344 Z M 329.679688 25.796875 " clip-rule="nonzero"/></clipPath><clipPath id="0b0dbfe8f6"><path d="M 329.679688 25.796875 L 339.890625 7.035156 L 370.203125 23.523438 L 359.992188 42.289062 Z M 329.679688 25.796875 " clip-rule="nonzero"/></clipPath><clipPath id="50c5a2dd6e"><path d="M 350 24 L 360 24 L 360 33 L 350 33 Z M 350 24 " clip-rule="nonzero"/></clipPath><clipPath id="2ae458cda8"><path d="M 329.679688 25.796875 L 339.890625 7.035156 L 359.375 17.636719 L 349.167969 36.402344 Z M 329.679688 25.796875 " clip-rule="nonzero"/></clipPath><clipPath id="82fd208940"><path d="M 329.679688 25.796875 L 339.890625 7.035156 L 370.203125 23.523438 L 359.992188 42.289062 Z M 329.679688 25.796875 " clip-rule="nonzero"/></clipPath></defs><g fill="#ffffff" fill-opacity="1"><g transform="translate(128.043628, 70.946032)"><g><path d="M 10.328125 -31.8125 L 10.359375 -9.703125 C 15.316406 -10.242188 19.335938 -10.59375 22.421875 -10.75 C 22.492188 -7.632812 22.453125 -4.757812 22.296875 -2.125 C 17.296875 -1.375 10.234375 -0.71875 1.109375 -0.15625 C 0.984375 -4.78125 0.941406 -9.648438 0.984375 -14.765625 C 1.023438 -19.890625 1.117188 -25.316406 1.265625 -31.046875 C 4.554688 -31.734375 7.578125 -31.988281 10.328125 -31.8125 Z M 10.328125 -31.8125 "/></g></g></g><g fill="#ffffff" fill-opacity="1"><g transform="translate(159.383934, 70.946032)"><g><path d="M 10.828125 -31.8125 C 10.953125 -26.800781 11.019531 -21.75 11.03125 -16.65625 C 11.039062 -11.5625 11 -6.367188 10.90625 -1.078125 C 8.050781 -0.617188 4.835938 -0.3125 1.265625 -0.15625 C 0.960938 -7.46875 0.890625 -17.722656 1.046875 -30.921875 C 2.785156 -31.253906 4.460938 -31.488281 6.078125 -31.625 C 7.703125 -31.769531 9.285156 -31.832031 10.828125 -31.8125 Z M 10.828125 -31.8125 "/></g></g></g><g fill="#ffffff" fill-opacity="1"><g transform="translate(179.286807, 70.946032)"><g><path d="M 1.1875 -29.96875 C 2.34375 -30.550781 3.753906 -31.039062 5.421875 -31.4375 C 7.097656 -31.84375 9.023438 -32.1875 11.203125 -32.46875 C 18.210938 -33.207031 22.820312 -31.523438 25.03125 -27.421875 C 26.394531 -24.179688 25.367188 -21.007812 21.953125 -17.90625 C 25.441406 -16.34375 27.1875 -14.273438 27.1875 -11.703125 C 27.1875 -9.160156 26.46875 -7.238281 25.03125 -5.9375 C 24.675781 -5.550781 24.289062 -5.203125 23.875 -4.890625 C 23.46875 -4.578125 23.046875 -4.28125 22.609375 -4 C 18.679688 -1.769531 14.203125 -0.566406 9.171875 -0.390625 C 8.421875 -0.304688 7.382812 -0.242188 6.0625 -0.203125 C 4.738281 -0.171875 3.113281 -0.140625 1.1875 -0.109375 C 0.9375 -9.660156 0.9375 -19.613281 1.1875 -29.96875 Z M 9.203125 -8.359375 C 14.234375 -8.148438 16.695312 -9.265625 16.59375 -11.703125 C 16.363281 -12.703125 15.695312 -13.253906 14.59375 -13.359375 C 13.207031 -13.566406 11.375 -13.320312 9.09375 -12.625 C 9.039062 -11.039062 9.078125 -9.617188 9.203125 -8.359375 Z M 9.28125 -19.984375 C 13.46875 -19.984375 15.445312 -20.945312 15.21875 -22.875 C 15.082031 -23.769531 14.566406 -24.3125 13.671875 -24.5 C 13.003906 -24.601562 12.289062 -24.613281 11.53125 -24.53125 C 10.78125 -24.457031 9.96875 -24.316406 9.09375 -24.109375 C 9.09375 -23.390625 9.101562 -22.6875 9.125 -22 C 9.15625 -21.320312 9.207031 -20.648438 9.28125 -19.984375 Z M 9.28125 -19.984375 "/></g></g></g><g fill="#ffffff" fill-opacity="1"><g transform="translate(215.325319, 70.946032)"><g><path d="M 21.875 -10.625 C 22.539062 -9.75 23.269531 -8.785156 24.0625 -7.734375 C 24.863281 -6.679688 25.726562 -5.539062 26.65625 -4.3125 C 25.78125 -3.488281 24.800781 -2.632812 23.71875 -1.75 C 22.644531 -0.863281 21.453125 0.0507812 20.140625 1 C 19.859375 0.820312 17.738281 -1.894531 13.78125 -7.15625 C 13.351562 -7.113281 12.894531 -7.078125 12.40625 -7.046875 C 11.914062 -7.023438 11.398438 -7 10.859375 -6.96875 C 10.859375 -6.070312 10.851562 -5.15625 10.84375 -4.21875 C 10.832031 -3.28125 10.828125 -2.320312 10.828125 -1.34375 C 8.203125 -0.832031 5.003906 -0.523438 1.234375 -0.421875 C 1.078125 -6.015625 0.992188 -11.34375 0.984375 -16.40625 C 0.972656 -21.46875 1.03125 -26.304688 1.15625 -30.921875 C 1.613281 -31.253906 4.242188 -31.691406 9.046875 -32.234375 C 10.765625 -32.441406 12.375 -32.546875 13.875 -32.546875 C 15.382812 -32.546875 16.789062 -32.441406 18.09375 -32.234375 C 23.488281 -31.160156 26.25 -27.550781 26.375 -21.40625 C 26.351562 -16.6875 24.851562 -13.09375 21.875 -10.625 Z M 10.90625 -15.140625 C 14.9375 -15.492188 17.144531 -16.695312 17.53125 -18.75 C 17.832031 -21.09375 17.34375 -22.632812 16.0625 -23.375 C 15.0625 -23.863281 13.300781 -23.914062 10.78125 -23.53125 C 10.8125 -22.195312 10.832031 -20.828125 10.84375 -19.421875 C 10.851562 -18.023438 10.875 -16.597656 10.90625 -15.140625 Z M 10.90625 -15.140625 "/></g></g></g><g fill="#ffffff" fill-opacity="1"><g transform="translate(250.824688, 70.946032)"><g><path d="M 11.484375 -3.734375 C 11.347656 -3.140625 11.21875 -2.5625 11.09375 -2 C 10.96875 -1.4375 10.835938 -0.859375 10.703125 -0.265625 C 6.003906 0.0351562 2.757812 -0.171875 0.96875 -0.890625 C 3.039062 -8.671875 4.800781 -15.113281 6.25 -20.21875 C 7.707031 -25.332031 8.859375 -29.160156 9.703125 -31.703125 C 13.554688 -32.566406 17.050781 -32.882812 20.1875 -32.65625 C 21.957031 -28.113281 23.6875 -23.410156 25.375 -18.546875 C 27.070312 -13.679688 28.742188 -8.59375 30.390625 -3.28125 C 28.816406 -2.375 25.476562 -1.613281 20.375 -1 C 20.195312 -1.59375 20.03125 -2.171875 19.875 -2.734375 C 19.71875 -3.296875 19.550781 -3.847656 19.375 -4.390625 C 18.289062 -4.316406 17.097656 -4.21875 15.796875 -4.09375 C 14.503906 -3.976562 13.066406 -3.859375 11.484375 -3.734375 Z M 17.015625 -12.203125 C 16.628906 -13.492188 16.273438 -14.644531 15.953125 -15.65625 C 15.640625 -16.664062 15.34375 -17.546875 15.0625 -18.296875 C 14.78125 -17.210938 14.503906 -16.144531 14.234375 -15.09375 C 13.960938 -14.039062 13.6875 -12.976562 13.40625 -11.90625 Z M 17.015625 -12.203125 "/></g></g></g><g fill="#ffffff" fill-opacity="1"><g transform="translate(290.059515, 70.946032)"><g><path d="M 21.875 -10.625 C 22.539062 -9.75 23.269531 -8.785156 24.0625 -7.734375 C 24.863281 -6.679688 25.726562 -5.539062 26.65625 -4.3125 C 25.78125 -3.488281 24.800781 -2.632812 23.71875 -1.75 C 22.644531 -0.863281 21.453125 0.0507812 20.140625 1 C 19.859375 0.820312 17.738281 -1.894531 13.78125 -7.15625 C 13.351562 -7.113281 12.894531 -7.078125 12.40625 -7.046875 C 11.914062 -7.023438 11.398438 -7 10.859375 -6.96875 C 10.859375 -6.070312 10.851562 -5.15625 10.84375 -4.21875 C 10.832031 -3.28125 10.828125 -2.320312 10.828125 -1.34375 C 8.203125 -0.832031 5.003906 -0.523438 1.234375 -0.421875 C 1.078125 -6.015625 0.992188 -11.34375 0.984375 -16.40625 C 0.972656 -21.46875 1.03125 -26.304688 1.15625 -30.921875 C 1.613281 -31.253906 4.242188 -31.691406 9.046875 -32.234375 C 10.765625 -32.441406 12.375 -32.546875 13.875 -32.546875 C 15.382812 -32.546875 16.789062 -32.441406 18.09375 -32.234375 C 23.488281 -31.160156 26.25 -27.550781 26.375 -21.40625 C 26.351562 -16.6875 24.851562 -13.09375 21.875 -10.625 Z M 10.90625 -15.140625 C 14.9375 -15.492188 17.144531 -16.695312 17.53125 -18.75 C 17.832031 -21.09375 17.34375 -22.632812 16.0625 -23.375 C 15.0625 -23.863281 13.300781 -23.914062 10.78125 -23.53125 C 10.8125 -22.195312 10.832031 -20.828125 10.84375 -19.421875 C 10.851562 -18.023438 10.875 -16.597656 10.90625 -15.140625 Z M 10.90625 -15.140625 "/></g></g></g><g fill="#ffffff" fill-opacity="1"><g transform="translate(325.558895, 70.946032)"><g><path d="M 11.78125 0.84375 C 6.1875 0.300781 3.03125 -0.273438 2.3125 -0.890625 C 3.769531 -3.296875 5.222656 -5.75 6.671875 -8.25 C 8.128906 -10.757812 9.578125 -13.320312 11.015625 -15.9375 C 9.242188 -17.632812 7.53125 -19.316406 5.875 -20.984375 C 4.21875 -22.660156 2.582031 -24.34375 0.96875 -26.03125 L 8.4375 -32.703125 C 9.488281 -31.597656 10.648438 -30.425781 11.921875 -29.1875 C 13.191406 -27.957031 14.597656 -26.648438 16.140625 -25.265625 C 16.878906 -26.859375 17.59375 -28.320312 18.28125 -29.65625 C 18.976562 -30.988281 19.660156 -32.207031 20.328125 -33.3125 C 22.285156 -33.007812 24.015625 -32.617188 25.515625 -32.140625 C 27.015625 -31.660156 28.304688 -31.113281 29.390625 -30.5 C 23.015625 -18.175781 17.144531 -7.726562 11.78125 0.84375 Z M 11.78125 0.84375 "/></g></g></g><g clip-path="url(#13b342cfb7)"><path fill="#412700" d="M 108.753906 96.8125 C 105.695312 93.582031 102.710938 91.347656 99.769531 90.03125 C 123.054688 70.546875 133.894531 45.867188 131.902344 36.769531 C 128.648438 58.054688 108.144531 82.546875 99.757812 90.023438 C 97.207031 88.882812 94.691406 88.433594 92.1875 88.625 C 99.21875 78.886719 105.914062 40.042969 101.859375 30.742188 C 105.105469 32.367188 108.496094 35.019531 114.222656 34.105469 C 107.132812 32.015625 104.46875 29.875 98.480469 26.066406 C 104.511719 46.855469 96.378906 77.710938 91.785156 88.660156 C 89.988281 88.847656 88.195312 89.367188 86.40625 90.199219 C 86.578125 75.808594 70.179688 35.8125 59.9375 29.386719 C 65.992188 29.457031 70.445312 28.21875 75.917969 26.539062 C 79.675781 33.035156 82.230469 40.769531 84.238281 48.429688 C 83.507812 40.058594 80.296875 31.703125 77.230469 23.910156 C 69.132812 26.285156 61.90625 26.941406 53.808594 26.976562 C 72.078125 42.914062 83.234375 76.582031 85.871094 90.460938 C 84.707031 91.042969 83.542969 91.753906 82.378906 92.589844 C 76.796875 80.617188 41.449219 52.894531 28.992188 52.550781 C 34.246094 49.539062 36.574219 46.644531 40.4375 42.421875 C 46.972656 46.105469 56.824219 54.976562 62.445312 60.554688 C 57.5625 53.714844 46.832031 44.207031 40.234375 39.050781 C 34.460938 45.210938 28.574219 49.445312 21.613281 53.589844 C 46.046875 58.152344 73.496094 82.554688 82.140625 92.765625 C 81.453125 93.269531 80.765625 93.8125 80.078125 94.40625 C 57.054688 87.390625 33.554688 85.582031 5.863281 95.5 C 8.855469 91.046875 9.949219 87.035156 10.019531 82.582031 C 23.007812 79.917969 38.113281 77.800781 55.777344 78.640625 C 42.671875 75.90625 24.371094 75.46875 8.050781 79.738281 C 6.683594 87.910156 3.949219 94.261719 0.828125 100.097656 C 31.234375 89.453125 57.1875 89.359375 81.171875 98.566406 C 91.097656 90.828125 100.4375 90.757812 107.441406 98.785156 C 135.609375 96.984375 183.042969 95.820312 211.210938 98.128906 C 186.683594 95.171875 139.121094 95.097656 108.753906 96.8125 Z M 108.753906 96.8125 " fill-opacity="1" fill-rule="evenodd"/></g><path fill="#412700" d="M 353.621094 31.429688 L 366.074219 21.4375 C 367.28125 20.46875 369.042969 20.664062 370.011719 21.871094 C 370.980469 23.078125 370.785156 24.84375 369.578125 25.8125 C 369.441406 25.925781 369.277344 26.027344 369.125 26.109375 L 354.984375 33.515625 C 353.625 34.179688 352.46875 32.40625 353.621094 31.429688 Z M 353.621094 31.429688 " fill-opacity="1" fill-rule="nonzero"/><g clip-path="url(#4108525584)"><path fill="#412700" d="M 356.6875 35.925781 C 361.65625 34.734375 366.808594 34.140625 371.992188 34.183594 C 373.207031 34.195312 374.179688 35.183594 374.171875 36.398438 C 374.164062 37.613281 373.171875 38.589844 371.957031 38.578125 C 367.074219 37.949219 362.09375 37.820312 357.117188 38.378906 C 355.566406 38.507812 355.1875 36.332031 356.6875 35.925781 Z M 356.6875 35.925781 " fill-opacity="1" fill-rule="nonzero"/></g><path fill="#412700" d="M 358.898438 40.75 C 362.855469 42.738281 367.097656 45.003906 369.804688 48.726562 C 371.476562 51.101562 368.160156 53.59375 366.34375 51.328125 C 365.828125 50.445312 365.316406 49.570312 364.613281 48.757812 C 364.003906 48.027344 363.308594 47.328125 362.5625 46.660156 C 361.066406 45.320312 359.359375 44.109375 357.621094 42.886719 C 357.054688 42.492188 356.917969 41.714844 357.3125 41.148438 C 357.671875 40.632812 358.355469 40.476562 358.898438 40.75 Z M 358.898438 40.75 " fill-opacity="1" fill-rule="nonzero"/><g clip-path="url(#43e1dab99e)"><g clip-path="url(#a84b43978f)"><g clip-path="url(#d58cd4ef2b)"><path fill="#412700" d="M 340.503906 30.363281 L 337.675781 14.652344 C 337.402344 13.128906 338.417969 11.671875 339.941406 11.398438 C 341.464844 11.125 342.921875 12.136719 343.195312 13.660156 C 343.226562 13.835938 343.238281 14.03125 343.238281 14.203125 L 342.984375 30.164062 C 342.921875 31.675781 340.808594 31.84375 340.503906 30.367188 Z M 340.503906 30.363281 " fill-opacity="1" fill-rule="nonzero"/></g></g></g><g clip-path="url(#7e4795f84e)"><g clip-path="url(#23bee3184e)"><g clip-path="url(#0b0dbfe8f6)"><path fill="#412700" d="M 345.917969 29.816406 C 347.246094 24.882812 349.1875 20.078125 351.703125 15.542969 C 352.289062 14.480469 353.625 14.097656 354.691406 14.6875 C 355.75 15.273438 356.132812 16.609375 355.546875 17.671875 C 352.65625 21.660156 350.164062 25.976562 348.277344 30.613281 C 347.648438 32.039062 345.558594 31.332031 345.917969 29.820312 Z M 345.917969 29.816406 " fill-opacity="1" fill-rule="nonzero"/></g></g></g><g clip-path="url(#50c5a2dd6e)"><g clip-path="url(#2ae458cda8)"><g clip-path="url(#82fd208940)"><path fill="#412700" d="M 351.214844 30.183594 C 354.847656 27.65625 358.867188 25.015625 363.429688 24.414062 C 366.316406 24.082031 366.921875 28.183594 364.058594 28.699219 C 363.039062 28.726562 362.027344 28.761719 360.980469 28.988281 C 360.042969 29.175781 359.097656 29.449219 358.152344 29.789062 C 356.261719 30.460938 354.382812 31.378906 352.480469 32.328125 C 351.863281 32.636719 351.113281 32.382812 350.804688 31.765625 C 350.523438 31.203125 350.710938 30.53125 351.214844 30.183594 Z M 351.214844 30.183594 " fill-opacity="1" fill-rule="nonzero"/></g></g></g><g fill="#ffffff" fill-opacity="1"><g transform="translate(165.022849, 92.630826)"><g><path d="M 6.625 0.25 C 4.632812 0.25 3.160156 -0.34375 2.203125 -1.53125 C 1.242188 -2.71875 0.765625 -4.640625 0.765625 -7.296875 L 0.765625 -8.078125 C 0.765625 -10.753906 1.242188 -12.679688 2.203125 -13.859375 C 3.160156 -15.046875 4.632812 -15.640625 6.625 -15.640625 C 8.625 -15.640625 10.101562 -15.046875 11.0625 -13.859375 C 12.019531 -12.679688 12.5 -10.753906 12.5 -8.078125 L 12.5 -7.296875 C 12.5 -4.640625 12.019531 -2.71875 11.0625 -1.53125 C 10.101562 -0.34375 8.625 0.25 6.625 0.25 Z M 6.546875 -2.5 L 6.71875 -2.5 C 7.707031 -2.5 8.375 -2.910156 8.71875 -3.734375 C 9.070312 -4.566406 9.25 -5.753906 9.25 -7.296875 L 9.25 -8.078125 C 9.25 -9.617188 9.070312 -10.800781 8.71875 -11.625 C 8.375 -12.457031 7.707031 -12.875 6.71875 -12.875 L 6.546875 -12.875 C 5.554688 -12.875 4.882812 -12.457031 4.53125 -11.625 C 4.175781 -10.800781 4 -9.617188 4 -8.078125 L 4 -7.296875 C 4 -5.753906 4.175781 -4.566406 4.53125 -3.734375 C 4.882812 -2.910156 5.554688 -2.5 6.546875 -2.5 Z M 6.546875 -2.5 "/></g></g></g><g fill="#ffffff" fill-opacity="1"><g transform="translate(188.716189, 92.630826)"><g><path d="M 12.359375 -15.375 L 12.359375 0 L 8.984375 0 L 4.015625 -9.546875 L 4.125 -6.453125 L 4.125 0 L 1.109375 0 L 1.109375 -15.375 L 4.46875 -15.375 L 9.421875 -5.84375 L 9.328125 -8.9375 L 9.328125 -15.375 Z M 12.359375 -15.375 "/></g></g></g><g fill="#ffffff" fill-opacity="1"><g transform="translate(212.606579, 92.630826)"><g><path d="M 9.984375 0 L 1.109375 0 L 1.109375 -15.375 L 4.296875 -15.375 L 4.296875 -2.765625 L 9.984375 -2.765625 Z M 9.984375 0 "/></g></g></g><g fill="#ffffff" fill-opacity="1"><g transform="translate(233.304704, 92.630826)"><g><path d="M 4.390625 -15.375 L 4.390625 0 L 1.203125 0 L 1.203125 -15.375 Z M 4.390625 -15.375 "/></g></g></g><g fill="#ffffff" fill-opacity="1"><g transform="translate(249.312956, 92.630826)"><g><path d="M 12.359375 -15.375 L 12.359375 0 L 8.984375 0 L 4.015625 -9.546875 L 4.125 -6.453125 L 4.125 0 L 1.109375 0 L 1.109375 -15.375 L 4.46875 -15.375 L 9.421875 -5.84375 L 9.328125 -8.9375 L 9.328125 -15.375 Z M 12.359375 -15.375 "/></g></g></g><g fill="#ffffff" fill-opacity="1"><g transform="translate(273.203347, 92.630826)"><g><path d="M 1.109375 -15.375 L 10.515625 -15.375 L 10.515625 -12.625 L 4.296875 -12.625 L 4.296875 -9.234375 L 9.53125 -9.234375 L 9.53125 -6.46875 L 4.296875 -6.46875 L 4.296875 -2.765625 L 10.515625 -2.765625 L 10.515625 0 L 1.109375 0 Z M 1.109375 -15.375 "/></g></g></g></svg>