<svg xmlns="http://www.w3.org/2000/svg" xmlns:xlink="http://www.w3.org/1999/xlink" width="500" zoomAndPan="magnify" viewBox="0 0 375 374.999991" height="500" preserveAspectRatio="xMidYMid meet" version="1.0"><defs><g/><clipPath id="716c44d4e1"><path d="M 79.359375 184 L 295.796875 184 L 295.796875 229.195312 L 79.359375 229.195312 Z M 79.359375 184 " clip-rule="nonzero"/></clipPath><clipPath id="18d0dd7359"><path d="M 109 69.621094 L 267 69.621094 L 267 193 L 109 193 Z M 109 69.621094 " clip-rule="nonzero"/></clipPath></defs><g fill="#d9d9d9" fill-opacity="1"><g transform="translate(28.671411, 288.68282)"><g><path d="M 20.71875 0 L 3.25 0 C 2.550781 0 2.203125 -0.390625 2.203125 -1.171875 L 2.203125 -41.234375 C 2.203125 -42.023438 2.539062 -42.421875 3.21875 -42.421875 L 9.34375 -42.421875 C 10.019531 -42.421875 10.359375 -42.023438 10.359375 -41.234375 L 10.359375 -7.390625 L 20.71875 -7.390625 C 21.289062 -7.390625 21.578125 -7.039062 21.578125 -6.34375 L 21.578125 -1.109375 C 21.578125 -0.367188 21.289062 0 20.71875 0 Z M 20.71875 0 "/></g></g></g><g fill="#d9d9d9" fill-opacity="1"><g transform="translate(50.919916, 288.68282)"><g><path d="M 10.359375 -41.234375 L 10.359375 -1.171875 C 10.359375 -0.390625 10.019531 0 9.34375 0 L 3.21875 0 C 2.539062 0 2.203125 -0.390625 2.203125 -1.171875 L 2.203125 -41.234375 C 2.203125 -42.023438 2.539062 -42.421875 3.21875 -42.421875 L 9.34375 -42.421875 C 10.019531 -42.421875 10.359375 -42.023438 10.359375 -41.234375 Z M 10.359375 -41.234375 "/></g></g></g><g fill="#d9d9d9" fill-opacity="1"><g transform="translate(63.515144, 288.68282)"><g><path d="M 16.3125 -10.875 L 16.3125 -14.625 C 16.3125 -15.925781 15.957031 -16.890625 15.25 -17.515625 C 14.539062 -18.140625 13.726562 -18.453125 12.8125 -18.453125 L 9.78125 -18.453125 L 9.78125 -7.390625 L 12.96875 -7.390625 C 13.707031 -7.390625 14.320312 -7.566406 14.8125 -7.921875 C 15.300781 -8.273438 15.671875 -8.71875 15.921875 -9.25 C 16.179688 -9.789062 16.3125 -10.332031 16.3125 -10.875 Z M 16.03125 -28.328125 L 16.03125 -31.328125 C 16.03125 -32.597656 15.703125 -33.523438 15.046875 -34.109375 C 14.398438 -34.691406 13.570312 -34.984375 12.5625 -34.984375 L 9.78125 -34.984375 L 9.78125 -25.046875 L 12.46875 -25.046875 C 12.925781 -25.046875 13.429688 -25.132812 13.984375 -25.3125 C 14.535156 -25.5 15.015625 -25.828125 15.421875 -26.296875 C 15.828125 -26.765625 16.03125 -27.441406 16.03125 -28.328125 Z M 23.78125 -31.796875 L 23.78125 -28.75 C 23.78125 -27.601562 23.539062 -26.550781 23.0625 -25.59375 C 22.582031 -24.632812 21.992188 -23.835938 21.296875 -23.203125 C 20.609375 -22.566406 19.9375 -22.179688 19.28125 -22.046875 C 19.707031 -21.921875 20.210938 -21.671875 20.796875 -21.296875 C 21.378906 -20.929688 21.957031 -20.421875 22.53125 -19.765625 C 23.101562 -19.117188 23.570312 -18.304688 23.9375 -17.328125 C 24.3125 -16.359375 24.5 -15.210938 24.5 -13.890625 L 24.5 -10.078125 C 24.5 -8.585938 24.207031 -7.222656 23.625 -5.984375 C 23.039062 -4.753906 22.25 -3.691406 21.25 -2.796875 C 20.257812 -1.910156 19.132812 -1.222656 17.875 -0.734375 C 16.625 -0.242188 15.316406 0 13.953125 0 L 3.25 0 C 2.550781 0 2.203125 -0.390625 2.203125 -1.171875 L 2.203125 -41.234375 C 2.203125 -42.023438 2.550781 -42.421875 3.25 -42.421875 L 13 -42.421875 C 15.144531 -42.421875 17.023438 -41.957031 18.640625 -41.03125 C 20.253906 -40.101562 21.515625 -38.84375 22.421875 -37.25 C 23.328125 -35.65625 23.78125 -33.835938 23.78125 -31.796875 Z M 23.78125 -31.796875 "/></g></g></g><g fill="#d9d9d9" fill-opacity="1"><g transform="translate(88.674956, 288.68282)"><g><path d="M 16.953125 -26.265625 L 16.953125 -31.359375 C 16.953125 -32.460938 16.628906 -33.34375 15.984375 -34 C 15.335938 -34.65625 14.484375 -34.984375 13.421875 -34.984375 L 10.359375 -34.984375 L 10.359375 -22.8125 L 13.21875 -22.8125 C 14.4375 -22.8125 15.363281 -23.125 16 -23.75 C 16.632812 -24.382812 16.953125 -25.222656 16.953125 -26.265625 Z M 23.75 -0.03125 L 18.109375 -0.03125 C 17.765625 -0.03125 17.441406 -0.144531 17.140625 -0.375 C 16.847656 -0.613281 16.703125 -0.957031 16.703125 -1.40625 L 16.703125 -7.8125 C 16.703125 -10.78125 16.171875 -12.929688 15.109375 -14.265625 C 14.046875 -15.609375 12.460938 -16.351562 10.359375 -16.5 L 10.359375 -1.140625 C 10.359375 -0.378906 10.019531 0 9.34375 0 L 3.21875 0 C 2.539062 0 2.203125 -0.378906 2.203125 -1.140625 L 2.203125 -41.234375 C 2.203125 -42.023438 2.550781 -42.421875 3.25 -42.421875 L 14.078125 -42.421875 C 15.648438 -42.421875 17.109375 -42.132812 18.453125 -41.5625 C 19.804688 -40.988281 20.984375 -40.191406 21.984375 -39.171875 C 22.984375 -38.148438 23.757812 -36.972656 24.3125 -35.640625 C 24.863281 -34.316406 25.140625 -32.890625 25.140625 -31.359375 L 25.140625 -26.96875 C 25.140625 -25.15625 24.71875 -23.609375 23.875 -22.328125 C 23.039062 -21.054688 22 -20 20.75 -19.15625 C 22.144531 -17.988281 23.175781 -16.410156 23.84375 -14.421875 C 24.519531 -12.429688 24.859375 -9.90625 24.859375 -6.84375 L 24.859375 -1.3125 C 24.859375 -1.050781 24.773438 -0.769531 24.609375 -0.46875 C 24.453125 -0.175781 24.164062 -0.03125 23.75 -0.03125 Z M 23.75 -0.03125 "/></g></g></g><g fill="#d9d9d9" fill-opacity="1"><g transform="translate(115.45897, 288.68282)"><g><path d="M 10.109375 -32 L 10.109375 -17.265625 L 16.640625 -17.265625 L 16.640625 -32 C 16.640625 -32.957031 16.351562 -33.8125 15.78125 -34.5625 C 15.207031 -35.3125 14.410156 -35.6875 13.390625 -35.6875 C 12.347656 -35.6875 11.539062 -35.3125 10.96875 -34.5625 C 10.394531 -33.8125 10.109375 -32.957031 10.109375 -32 Z M 24.828125 -32.46875 L 24.828125 -1.21875 C 24.828125 -0.914062 24.75 -0.632812 24.59375 -0.375 C 24.445312 -0.125 24.195312 0 23.84375 0 L 17.625 0 C 17.320312 0 17.082031 -0.117188 16.90625 -0.359375 C 16.726562 -0.609375 16.640625 -0.894531 16.640625 -1.21875 L 16.640625 -10.109375 L 10.109375 -10.109375 L 10.109375 -1.203125 C 10.109375 -0.867188 10.046875 -0.582031 9.921875 -0.34375 C 9.804688 -0.113281 9.566406 0 9.203125 0 L 2.734375 0 C 2.503906 0 2.3125 -0.113281 2.15625 -0.34375 C 2.007812 -0.582031 1.9375 -0.867188 1.9375 -1.203125 L 1.9375 -32.46875 C 1.9375 -33.9375 2.238281 -35.3125 2.84375 -36.59375 C 3.457031 -37.882812 4.289062 -39.015625 5.34375 -39.984375 C 6.394531 -40.960938 7.609375 -41.722656 8.984375 -42.265625 C 10.367188 -42.816406 11.828125 -43.09375 13.359375 -43.09375 C 14.898438 -43.09375 16.359375 -42.816406 17.734375 -42.265625 C 19.109375 -41.722656 20.328125 -40.960938 21.390625 -39.984375 C 22.453125 -39.015625 23.289062 -37.882812 23.90625 -36.59375 C 24.519531 -35.3125 24.828125 -33.9375 24.828125 -32.46875 Z M 24.828125 -32.46875 "/></g></g></g><g fill="#d9d9d9" fill-opacity="1"><g transform="translate(142.212339, 288.68282)"><g><path d="M 16.953125 -26.265625 L 16.953125 -31.359375 C 16.953125 -32.460938 16.628906 -33.34375 15.984375 -34 C 15.335938 -34.65625 14.484375 -34.984375 13.421875 -34.984375 L 10.359375 -34.984375 L 10.359375 -22.8125 L 13.21875 -22.8125 C 14.4375 -22.8125 15.363281 -23.125 16 -23.75 C 16.632812 -24.382812 16.953125 -25.222656 16.953125 -26.265625 Z M 23.75 -0.03125 L 18.109375 -0.03125 C 17.765625 -0.03125 17.441406 -0.144531 17.140625 -0.375 C 16.847656 -0.613281 16.703125 -0.957031 16.703125 -1.40625 L 16.703125 -7.8125 C 16.703125 -10.78125 16.171875 -12.929688 15.109375 -14.265625 C 14.046875 -15.609375 12.460938 -16.351562 10.359375 -16.5 L 10.359375 -1.140625 C 10.359375 -0.378906 10.019531 0 9.34375 0 L 3.21875 0 C 2.539062 0 2.203125 -0.378906 2.203125 -1.140625 L 2.203125 -41.234375 C 2.203125 -42.023438 2.550781 -42.421875 3.25 -42.421875 L 14.078125 -42.421875 C 15.648438 -42.421875 17.109375 -42.132812 18.453125 -41.5625 C 19.804688 -40.988281 20.984375 -40.191406 21.984375 -39.171875 C 22.984375 -38.148438 23.757812 -36.972656 24.3125 -35.640625 C 24.863281 -34.316406 25.140625 -32.890625 25.140625 -31.359375 L 25.140625 -26.96875 C 25.140625 -25.15625 24.71875 -23.609375 23.875 -22.328125 C 23.039062 -21.054688 22 -20 20.75 -19.15625 C 22.144531 -17.988281 23.175781 -16.410156 23.84375 -14.421875 C 24.519531 -12.429688 24.859375 -9.90625 24.859375 -6.84375 L 24.859375 -1.3125 C 24.859375 -1.050781 24.773438 -0.769531 24.609375 -0.46875 C 24.453125 -0.175781 24.164062 -0.03125 23.75 -0.03125 Z M 23.75 -0.03125 "/></g></g></g><g fill="#d9d9d9" fill-opacity="1"><g transform="translate(168.996353, 288.68282)"><g><path d="M 16.796875 -17.046875 L 16.796875 -1.203125 C 16.796875 -0.398438 16.5 0 15.90625 0 L 9.5625 0 C 8.945312 0 8.640625 -0.398438 8.640625 -1.203125 L 8.640625 -17.078125 C 7.234375 -17.546875 5.972656 -18.242188 4.859375 -19.171875 C 3.742188 -20.097656 2.867188 -21.226562 2.234375 -22.5625 C 1.597656 -23.90625 1.28125 -25.40625 1.28125 -27.0625 L 1.3125 -41.71875 C 1.3125 -41.925781 1.363281 -42.09375 1.46875 -42.21875 C 1.570312 -42.351562 1.738281 -42.421875 1.96875 -42.421875 L 8.703125 -42.421875 C 8.953125 -42.421875 9.140625 -42.351562 9.265625 -42.21875 C 9.398438 -42.09375 9.46875 -41.945312 9.46875 -41.78125 L 9.46875 -27.5 C 9.46875 -26.539062 9.742188 -25.6875 10.296875 -24.9375 C 10.847656 -24.1875 11.65625 -23.8125 12.71875 -23.8125 C 13.78125 -23.8125 14.59375 -24.15625 15.15625 -24.84375 C 15.71875 -25.53125 16 -26.351562 16 -27.3125 L 16 -41.71875 C 16 -41.925781 16.054688 -42.09375 16.171875 -42.21875 C 16.285156 -42.351562 16.453125 -42.421875 16.671875 -42.421875 L 23.546875 -42.421875 C 23.972656 -42.421875 24.1875 -42.195312 24.1875 -41.75 L 24.1875 -27.0625 C 24.1875 -25.375 23.863281 -23.859375 23.21875 -22.515625 C 22.570312 -21.179688 21.691406 -20.050781 20.578125 -19.125 C 19.472656 -18.207031 18.210938 -17.515625 16.796875 -17.046875 Z M 16.796875 -17.046875 "/></g></g></g><g fill="#d9d9d9" fill-opacity="1"><g transform="translate(194.462617, 288.68282)"><g/></g></g><g fill="#d9d9d9" fill-opacity="1"><g transform="translate(208.682048, 288.68282)"><g><path d="M 24.4375 -32.4375 L 24.4375 -9.96875 C 24.4375 -8.3125 24.128906 -6.820312 23.515625 -5.5 C 22.898438 -4.1875 22.0625 -3.066406 21 -2.140625 C 19.9375 -1.222656 18.707031 -0.523438 17.3125 -0.046875 C 15.925781 0.429688 14.46875 0.671875 12.9375 0.671875 C 11.40625 0.671875 9.953125 0.421875 8.578125 -0.078125 C 7.210938 -0.578125 6 -1.285156 4.9375 -2.203125 C 3.875 -3.128906 3.039062 -4.25 2.4375 -5.5625 C 1.832031 -6.882812 1.53125 -8.351562 1.53125 -9.96875 L 1.53125 -32.4375 C 1.53125 -34.09375 1.832031 -35.578125 2.4375 -36.890625 C 3.039062 -38.210938 3.875 -39.332031 4.9375 -40.25 C 6 -41.164062 7.210938 -41.863281 8.578125 -42.34375 C 9.953125 -42.820312 11.40625 -43.0625 12.9375 -43.0625 C 14.46875 -43.0625 15.925781 -42.820312 17.3125 -42.34375 C 18.707031 -41.863281 19.9375 -41.164062 21 -40.25 C 22.0625 -39.332031 22.898438 -38.21875 23.515625 -36.90625 C 24.128906 -35.601562 24.4375 -34.113281 24.4375 -32.4375 Z M 13 -35.71875 C 11.957031 -35.71875 11.144531 -35.335938 10.5625 -34.578125 C 9.976562 -33.816406 9.6875 -32.945312 9.6875 -31.96875 L 9.6875 -10.390625 C 9.6875 -9.429688 9.96875 -8.578125 10.53125 -7.828125 C 11.09375 -7.085938 11.894531 -6.71875 12.9375 -6.71875 C 14 -6.71875 14.820312 -7.054688 15.40625 -7.734375 C 15.988281 -8.421875 16.28125 -9.242188 16.28125 -10.203125 L 16.28125 -31.96875 C 16.28125 -32.945312 15.988281 -33.816406 15.40625 -34.578125 C 14.820312 -35.335938 14.019531 -35.71875 13 -35.71875 Z M 13 -35.71875 "/></g></g></g><g fill="#d9d9d9" fill-opacity="1"><g transform="translate(234.638638, 288.68282)"><g><path d="M 23.84375 0 L 17.625 0 C 17.320312 0 17.082031 -0.117188 16.90625 -0.359375 C 16.726562 -0.609375 16.640625 -0.894531 16.640625 -1.21875 L 16.640625 -32 C 16.640625 -32.957031 16.351562 -33.8125 15.78125 -34.5625 C 15.207031 -35.3125 14.410156 -35.6875 13.390625 -35.6875 C 12.347656 -35.6875 11.539062 -35.3125 10.96875 -34.5625 C 10.394531 -33.8125 10.109375 -32.957031 10.109375 -32 L 10.109375 -1.203125 C 10.109375 -0.867188 10.039062 -0.582031 9.90625 -0.34375 C 9.78125 -0.113281 9.546875 0 9.203125 0 L 2.734375 0 C 2.503906 0 2.3125 -0.113281 2.15625 -0.34375 C 2.007812 -0.582031 1.9375 -0.867188 1.9375 -1.203125 L 1.9375 -32.46875 C 1.9375 -33.9375 2.238281 -35.3125 2.84375 -36.59375 C 3.457031 -37.882812 4.289062 -39.015625 5.34375 -39.984375 C 6.394531 -40.960938 7.609375 -41.722656 8.984375 -42.265625 C 10.367188 -42.816406 11.828125 -43.09375 13.359375 -43.09375 C 14.898438 -43.09375 16.359375 -42.816406 17.734375 -42.265625 C 19.109375 -41.722656 20.328125 -40.960938 21.390625 -39.984375 C 22.453125 -39.015625 23.289062 -37.882812 23.90625 -36.59375 C 24.519531 -35.3125 24.828125 -33.9375 24.828125 -32.46875 L 24.828125 -1.21875 C 24.828125 -0.914062 24.75 -0.632812 24.59375 -0.375 C 24.445312 -0.125 24.195312 0 23.84375 0 Z M 23.84375 0 "/></g></g></g><g fill="#d9d9d9" fill-opacity="1"><g transform="translate(261.392006, 288.68282)"><g><path d="M 20.71875 0 L 3.25 0 C 2.550781 0 2.203125 -0.390625 2.203125 -1.171875 L 2.203125 -41.234375 C 2.203125 -42.023438 2.539062 -42.421875 3.21875 -42.421875 L 9.34375 -42.421875 C 10.019531 -42.421875 10.359375 -42.023438 10.359375 -41.234375 L 10.359375 -7.390625 L 20.71875 -7.390625 C 21.289062 -7.390625 21.578125 -7.039062 21.578125 -6.34375 L 21.578125 -1.109375 C 21.578125 -0.367188 21.289062 0 20.71875 0 Z M 20.71875 0 "/></g></g></g><g fill="#d9d9d9" fill-opacity="1"><g transform="translate(283.640512, 288.68282)"><g><path d="M 10.359375 -41.234375 L 10.359375 -1.171875 C 10.359375 -0.390625 10.019531 0 9.34375 0 L 3.21875 0 C 2.539062 0 2.203125 -0.390625 2.203125 -1.171875 L 2.203125 -41.234375 C 2.203125 -42.023438 2.539062 -42.421875 3.21875 -42.421875 L 9.34375 -42.421875 C 10.019531 -42.421875 10.359375 -42.023438 10.359375 -41.234375 Z M 10.359375 -41.234375 "/></g></g></g><g fill="#d9d9d9" fill-opacity="1"><g transform="translate(296.23574, 288.68282)"><g><path d="M 23.84375 0 L 17.625 0 C 17.320312 0 17.082031 -0.117188 16.90625 -0.359375 C 16.726562 -0.609375 16.640625 -0.894531 16.640625 -1.21875 L 16.640625 -32 C 16.640625 -32.957031 16.351562 -33.8125 15.78125 -34.5625 C 15.207031 -35.3125 14.410156 -35.6875 13.390625 -35.6875 C 12.347656 -35.6875 11.539062 -35.3125 10.96875 -34.5625 C 10.394531 -33.8125 10.109375 -32.957031 10.109375 -32 L 10.109375 -1.203125 C 10.109375 -0.867188 10.039062 -0.582031 9.90625 -0.34375 C 9.78125 -0.113281 9.546875 0 9.203125 0 L 2.734375 0 C 2.503906 0 2.3125 -0.113281 2.15625 -0.34375 C 2.007812 -0.582031 1.9375 -0.867188 1.9375 -1.203125 L 1.9375 -32.46875 C 1.9375 -33.9375 2.238281 -35.3125 2.84375 -36.59375 C 3.457031 -37.882812 4.289062 -39.015625 5.34375 -39.984375 C 6.394531 -40.960938 7.609375 -41.722656 8.984375 -42.265625 C 10.367188 -42.816406 11.828125 -43.09375 13.359375 -43.09375 C 14.898438 -43.09375 16.359375 -42.816406 17.734375 -42.265625 C 19.109375 -41.722656 20.328125 -40.960938 21.390625 -39.984375 C 22.453125 -39.015625 23.289062 -37.882812 23.90625 -36.59375 C 24.519531 -35.3125 24.828125 -33.9375 24.828125 -32.46875 L 24.828125 -1.21875 C 24.828125 -0.914062 24.75 -0.632812 24.59375 -0.375 C 24.445312 -0.125 24.195312 0 23.84375 0 Z M 23.84375 0 "/></g></g></g><g fill="#d9d9d9" fill-opacity="1"><g transform="translate(322.989108, 288.68282)"><g><path d="M 10.359375 -7.390625 L 21.734375 -7.390625 C 21.984375 -7.390625 22.191406 -7.300781 22.359375 -7.125 C 22.535156 -6.945312 22.625 -6.6875 22.625 -6.34375 L 22.625 -1.078125 C 22.625 -0.703125 22.535156 -0.425781 22.359375 -0.25 C 22.191406 -0.0820312 21.984375 0 21.734375 0 L 3.25 0 C 2.550781 0 2.203125 -0.390625 2.203125 -1.171875 L 2.203125 -41.234375 C 2.203125 -42.023438 2.550781 -42.421875 3.25 -42.421875 L 21.578125 -42.421875 C 22.148438 -42.421875 22.4375 -42.046875 22.4375 -41.296875 L 22.4375 -36.078125 C 22.4375 -35.347656 22.148438 -34.984375 21.578125 -34.984375 L 10.359375 -34.984375 L 10.359375 -25.140625 L 19.3125 -25.140625 C 19.582031 -25.140625 19.8125 -25.054688 20 -24.890625 C 20.195312 -24.722656 20.296875 -24.445312 20.296875 -24.0625 L 20.296875 -18.828125 C 20.296875 -18.453125 20.203125 -18.179688 20.015625 -18.015625 C 19.828125 -17.859375 19.59375 -17.78125 19.3125 -17.78125 L 10.359375 -17.78125 Z M 10.359375 -7.390625 "/></g></g></g><g clip-path="url(#716c44d4e1)"><path fill="#0c66e3" d="M 183.140625 223.34375 C 183.140625 223.34375 150.8125 193.667969 89.21875 206.550781 L 107.46875 184.390625 C 107.46875 184.390625 169.765625 179.851562 187.574219 225.871094 C 187.574219 225.871094 253.207031 216.0625 295.785156 229.175781 L 294.160156 212.015625 C 294.160156 212.015625 236.640625 199.433594 192.003906 223.347656 C 192.003906 223.347656 224.332031 193.671875 285.929688 206.554688 L 267.675781 184.394531 C 267.675781 184.394531 205.382812 179.855469 187.570312 225.875 C 187.570312 225.875 121.9375 216.066406 79.359375 229.179688 L 80.984375 212.019531 C 80.984375 212.015625 138.503906 199.429688 183.140625 223.34375 " fill-opacity="1" fill-rule="evenodd"/></g><g clip-path="url(#18d0dd7359)"><path fill="#1eb3f0" d="M 187.570312 82.160156 L 137.644531 120.160156 L 187.570312 89.675781 L 237.5 120.160156 Z M 200.957031 164.546875 C 202.574219 164.546875 203.882812 165.855469 203.882812 167.464844 C 203.882812 169.078125 202.574219 170.382812 200.957031 170.382812 C 199.339844 170.382812 198.027344 169.078125 198.027344 167.464844 C 198.03125 165.855469 199.339844 164.546875 200.957031 164.546875 Z M 161.730469 134.207031 L 213.414062 134.207031 L 213.414062 138.445312 L 161.730469 138.445312 Z M 238.195312 165.855469 L 227.628906 165.855469 L 227.628906 155.328125 L 238.195312 155.328125 Z M 250.890625 155.332031 L 250.890625 165.859375 L 240.324219 165.859375 L 240.324219 155.332031 Z M 240.324219 142.6875 L 250.890625 142.6875 L 250.890625 153.210938 L 240.324219 153.210938 Z M 227.632812 142.6875 L 238.199219 142.6875 L 238.199219 153.210938 L 227.632812 153.210938 Z M 224.3125 134.207031 L 254.210938 134.207031 L 254.210938 138.445312 L 224.3125 138.445312 Z M 134.816406 165.855469 L 124.25 165.855469 L 124.25 155.328125 L 134.816406 155.328125 Z M 147.511719 155.332031 L 147.511719 165.859375 L 136.941406 165.859375 L 136.941406 155.332031 Z M 136.945312 142.6875 L 147.515625 142.6875 L 147.515625 153.210938 L 136.945312 153.210938 Z M 124.25 142.6875 L 134.816406 142.6875 L 134.816406 153.210938 L 124.25 153.210938 Z M 120.933594 134.207031 L 150.832031 134.207031 L 150.832031 138.445312 L 120.933594 138.445312 Z M 187.570312 69.605469 L 109.027344 129.378906 L 109.027344 178.363281 C 119.714844 177.878906 132.511719 179.53125 142.492188 182.128906 C 151.570312 184.488281 160.046875 187.980469 167.519531 192.742188 L 167.519531 142.6875 L 207.625 142.6875 L 207.625 192.746094 C 215.09375 187.980469 223.570312 184.492188 232.652344 182.132812 C 242.628906 179.535156 255.425781 177.882812 266.113281 178.367188 L 266.113281 129.378906 Z M 187.570312 69.605469 " fill-opacity="1" fill-rule="evenodd"/></g></svg>